<svg xmlns="http://www.w3.org/2000/svg" viewBox="-6 -6 112 112">
  <g transform="translate(6,1)">
    <circle cx="46" cy="48" r="45" fill="none" stroke="#F0A020" stroke-width="3.4" stroke-dasharray="1 10.2" stroke-linecap="round" opacity=".55"/>
    <g transform="rotate(-6 40 42)">
      <path d="M8,14 h48 a12,12 0 0 1 12,12 v24 a12,12 0 0 1 -12,12 h-30 l-15,14 v-14 h-3 a12,12 0 0 1 -12,-12 v-24 a12,12 0 0 1 12,-12 z" fill="#F0A020"/>
      <path d="M18,24 a16,16 0 0 1 12,-7.5" stroke="#fff" stroke-width="3.2" stroke-linecap="round" fill="none" opacity=".5"/>
    </g>
    <circle cx="76" cy="70" r="21" fill="#fff"/>
    <circle cx="76" cy="70" r="21" fill="none" stroke="#F0A020" stroke-width="3"/>
    <path d="M69,60 L69,80 L87,70 Z" fill="#F0A020"/>
    <circle cx="78" cy="14" r="3.4" fill="#F0A020"/>
  </g>
</svg>
